<?xml version="1.0" encoding="UTF-8" standalone="no"?>
<!DOCTYPE svg PUBLIC "-//W3C//DTD SVG 1.1//EN" "http://www.w3.org/Graphics/SVG/1.1/DTD/svg11.dtd">
<svg width="100%" height="100%" viewBox="0 0 196 196" version="1.1" xmlns="http://www.w3.org/2000/svg" xmlns:xlink="http://www.w3.org/1999/xlink" xml:space="preserve" xmlns:serif="http://www.serif.com/" style="fill-rule:evenodd;clip-rule:evenodd;stroke-linejoin:round;stroke-miterlimit:2;">
    <g transform="matrix(1.37429,0,0,1.37429,-52.8256,-8.71834)">
        <path d="M79.4,58C73.7,58 68.3,60.2 64.2,64.3C55.8,72.7 55.8,86.3 64.2,94.6C68.3,98.7 73.6,100.9 79.4,100.9C85.1,100.9 90.5,98.7 94.6,94.6L99.2,90L88.5,79.4L99.1,68.8L94.5,64.2C90.5,60.2 85.1,58 79.4,58Z" style="fill:none;fill-rule:nonzero;"/>
        <path d="M120.3,90L124.9,94.6C129,98.7 134.3,100.9 140.1,100.9C145.9,100.9 151.2,98.7 155.3,94.6C159.4,90.5 161.6,85.2 161.6,79.4C161.6,73.7 159.4,68.3 155.3,64.2C151.2,60.1 145.9,57.9 140.1,57.9C134.3,57.9 129,60.1 124.9,64.2L120.3,68.8L130.9,79.4L120.3,90Z" style="fill:none;fill-rule:nonzero;"/>
        <path d="M120.3,68.8L94.5,94.6C90.4,98.7 85.1,100.9 79.3,100.9C73.6,100.9 68.2,98.7 64.1,94.6C55.7,86.2 55.7,72.6 64.1,64.3C68.2,60.2 73.5,58 79.3,58C85.1,58 90.4,60.2 94.5,64.3L99.1,68.9L109.7,58.3L105.1,53.7C98.1,46.5 88.7,43 79.4,43C70.1,43 60.7,46.6 53.6,53.7C39.4,67.9 39.4,91 53.6,105.2C60.7,112.3 70,115.9 79.4,115.9C88.7,115.9 98.1,112.3 105.2,105.2L109.8,100.6L120.3,90L130.9,79.4L120.3,68.8Z" style="fill:rgb(70,235,200);fill-rule:nonzero;"/>
        <path d="M165.8,53.6C158.7,46.5 149.4,42.9 140,42.9C130.7,42.9 121.3,46.5 114.2,53.6L109.6,58.2L99.1,68.8L88.5,79.4L99.1,90L124.9,64.2C129,60.1 134.3,57.9 140.1,57.9C145.9,57.9 151.2,60.1 155.3,64.2C159.4,68.3 161.6,73.6 161.6,79.4C161.6,85.1 159.4,90.5 155.3,94.6C151.2,98.7 145.9,100.9 140.1,100.9C134.3,100.9 129,98.7 124.9,94.6L120.3,90L109.7,100.6L114.3,105.2C121.4,112.3 130.7,115.9 140.1,115.9C149.4,115.9 158.8,112.3 165.9,105.2C180.1,91 180.1,67.9 165.8,53.6Z" style="fill:rgb(255,0,164);fill-rule:nonzero;"/>
        <path d="M105.2,53.6C98.1,46.5 88.7,43 79.4,43C78.7,43 77.9,43 77.2,43.1L77.2,58.2C78,58.1 78.7,58.1 79.5,58.1C85.2,58.1 90.6,60.3 94.7,64.4L99.3,69L109.9,58.4L105.2,53.6Z" style="fill:url(#_Linear1);fill-rule:nonzero;"/>
        <path d="M114.3,105.2C121.4,112.3 130.7,115.9 140.1,115.9C140.8,115.9 141.6,115.9 142.3,115.8L142.3,100.7C141.5,100.8 140.8,100.8 140,100.8C134.3,100.8 128.9,98.6 124.8,94.5L120.2,89.9L109.6,100.5L114.3,105.2Z" style="fill:url(#_Linear2);fill-rule:nonzero;"/>
    </g>
    <defs>
        <linearGradient id="_Linear1" x1="0" y1="0" x2="1" y2="0" gradientUnits="userSpaceOnUse" gradientTransform="matrix(23.6496,23.6496,-23.6496,23.6496,79.3614,44.0742)"><stop offset="0" style="stop-color:rgb(68,150,160);stop-opacity:0"/><stop offset="0.41" style="stop-color:rgb(68,150,160);stop-opacity:0"/><stop offset="1" style="stop-color:rgb(68,150,160);stop-opacity:0.95"/></linearGradient>
        <linearGradient id="_Linear2" x1="0" y1="0" x2="1" y2="0" gradientUnits="userSpaceOnUse" gradientTransform="matrix(-23.6499,-23.6495,23.6495,-23.6499,140.11,114.755)"><stop offset="0" style="stop-color:rgb(190,30,45);stop-opacity:0"/><stop offset="0.41" style="stop-color:rgb(190,30,45);stop-opacity:0"/><stop offset="1" style="stop-color:rgb(190,30,45);stop-opacity:0.95"/></linearGradient>
    </defs>
</svg>
